<?xml version="1.0" standalone="no"?>
<!DOCTYPE svg PUBLIC "-//W3C//DTD SVG 20010904//EN"
 "http://www.w3.org/TR/2001/REC-SVG-20010904/DTD/svg10.dtd">
<svg version="1.0" xmlns="http://www.w3.org/2000/svg"
 width="1024.000000pt" height="1024.000000pt" viewBox="0 0 1024.000000 1024.000000"
 preserveAspectRatio="xMidYMid meet">

<g transform="translate(0.000000,1024.000000) scale(0.100000,-0.100000)"
fill="#000000" stroke="none">
<path d="M5250 9645 c-86 -16 -230 -65 -305 -103 -267 -135 -484 -395 -545
-655 -28 -116 -30 -265 -5 -369 42 -179 195 -406 322 -477 11 -6 2 -32 -41
-120 -30 -62 -64 -145 -76 -184 -11 -40 -32 -92 -46 -117 -60 -107 -154 -313
-186 -405 -19 -55 -50 -161 -68 -235 l-33 -135 -73 -75 c-124 -126 -184 -234
-225 -407 -25 -102 -30 -291 -10 -388 40 -199 129 -370 268 -516 l73 -76 -83
-12 c-257 -38 -390 -52 -545 -58 -128 -4 -177 -10 -188 -20 -30 -31 -101 33
-174 156 -39 65 -125 252 -118 255 61 26 174 91 225 130 133 100 214 250 199
371 l-6 52 78 79 c88 90 125 154 147 259 19 88 11 151 -27 236 -27 59 -28 70
-19 106 8 29 18 43 34 47 39 10 99 68 123 120 30 64 32 162 5 221 -17 38 -69
92 -119 125 -22 14 -23 17 -11 64 26 105 -10 315 -78 451 -146 290 -441 519
-778 604 -272 68 -668 69 -933 2 -541 -139 -929 -535 -950 -972 -3 -80 -1
-118 10 -151 l16 -44 -36 -25 c-87 -59 -151 -186 -138 -271 14 -84 68 -153
146 -184 33 -13 36 -17 32 -49 -2 -19 1 -48 6 -64 9 -24 6 -43 -15 -103 -21
-62 -25 -84 -20 -146 13 -175 140 -325 341 -403 l69 -27 22 -61 c27 -74 79
-139 159 -199 104 -77 237 -132 519 -213 l77 -22 0 -36 c0 -59 46 -359 69
-448 46 -180 120 -353 204 -478 57 -84 187 -216 272 -274 126 -88 303 -163
446 -191 44 -8 59 -16 67 -35 19 -42 53 -55 170 -66 103 -9 288 -1 378 17 l31
6 -31 -126 -31 -126 -40 -10 c-106 -28 -180 -74 -212 -133 -9 -17 -11 -17 -55
3 -144 63 -394 56 -703 -21 -66 -16 -143 -41 -172 -55 -53 -26 -123 -93 -123
-119 0 -21 -4 -20 -57 21 -62 47 -142 87 -233 116 -63 19 -96 23 -210 23 -114
0 -147 -4 -210 -23 -141 -45 -256 -116 -365 -226 -166 -167 -269 -369 -321
-631 -26 -129 -26 -492 -1 -619 79 -389 264 -629 567 -732 75 -26 277 -26 369
-1 l64 18 31 -38 c143 -176 392 -415 471 -452 119 -56 199 -52 439 20 505 152
1034 245 1592 280 247 15 960 6 1174 -14 463 -45 733 -97 1245 -236 331 -91
364 -97 445 -83 135 24 173 51 416 295 200 200 225 229 255 294 29 61 39 74
68 84 47 16 108 74 135 128 13 25 32 81 41 123 l18 77 66 6 c203 19 386 125
516 297 127 170 182 414 145 646 -40 246 -215 445 -498 567 -153 67 -482 138
-615 134 -98 -3 -299 48 -270 68 112 80 216 188 291 304 l36 56 106 5 c296 15
529 205 572 468 9 56 20 85 44 116 61 81 79 131 82 231 3 64 -1 106 -11 136
-12 35 -12 48 -2 68 44 85 44 230 2 322 -34 74 -112 156 -186 196 -59 31 -204
74 -294 87 -39 5 -47 10 -42 23 18 45 37 166 38 246 1 149 -34 237 -132 328
-77 72 -128 92 -231 91 -72 0 -93 -4 -137 -27 -137 -71 -179 -144 -207 -361
-21 -161 -36 -206 -131 -406 -115 -243 -138 -352 -116 -549 l12 -103 -31 -52
c-18 -29 -56 -85 -84 -124 l-53 -72 -24 26 c-45 49 -214 191 -292 248 -144
102 -334 200 -542 277 -49 18 -91 33 -92 34 -1 0 40 44 91 97 l92 96 65 -7
c297 -36 565 149 648 446 74 269 -5 511 -203 623 -31 18 -56 36 -56 40 0 33
124 410 144 437 1 1 28 -5 61 -13 34 -8 113 -14 180 -14 100 -1 135 3 208 25
150 43 269 116 372 227 305 329 288 839 -38 1134 -93 85 -215 154 -322 185
-27 8 -32 16 -48 75 -23 88 -86 214 -149 298 -116 155 -332 290 -553 347 -162
42 -382 40 -559 -5 -55 -14 -100 -25 -101 -23 -34 72 -163 210 -260 276 -91
63 -152 92 -270 126 -113 34 -325 43 -445 20z m387 -254 c117 -39 199 -88 275
-165 71 -70 112 -138 128 -211 13 -57 34 -85 65 -85 11 0 61 16 111 36 152 62
209 75 345 81 149 7 253 -11 370 -61 229 -99 377 -279 445 -541 14 -55 33
-108 41 -117 12 -13 32 -17 87 -17 189 0 371 -155 445 -378 105 -316 -91 -654
-429 -739 -64 -16 -233 -16 -260 1 -6 4 -4 17 6 37 9 16 18 54 21 82 13 124
-62 251 -272 462 -361 364 -806 595 -1330 690 -76 14 -151 19 -310 19 -189 0
-217 -2 -280 -22 -83 -26 -129 -62 -191 -149 -25 -35 -48 -64 -51 -64 -2 0
-24 14 -48 30 -120 83 -195 245 -195 421 0 105 22 194 71 289 176 339 605 519
956 401z m-2969 -972 c320 -34 581 -151 751 -336 108 -117 190 -278 206 -405
9 -71 -8 -148 -39 -177 -27 -25 -111 -43 -316 -66 -80 -8 -161 -18 -180 -20
-294 -36 -1104 -42 -1420 -12 -356 35 -360 36 -380 134 -19 91 22 247 101 380
48 79 185 221 274 282 258 179 632 261 1003 220z m2967 -154 c476 -84 911
-301 1207 -601 148 -150 238 -273 238 -325 0 -17 -141 -365 -157 -388 -1 -2
-54 50 -117 116 -203 212 -423 370 -711 513 -366 182 -801 290 -1108 277
l-118 -5 37 66 c20 37 79 131 130 209 66 101 100 144 116 147 13 3 32 7 43 10
40 10 352 -4 440 -19z m-333 -624 c407 -70 870 -282 1168 -534 87 -73 83 -55
55 -262 -24 -175 -27 -480 -6 -540 18 -52 48 -95 67 -95 8 0 43 29 77 64 78
79 114 98 197 104 121 8 202 -53 242 -182 37 -122 8 -289 -70 -406 -98 -145
-295 -201 -467 -131 -38 16 -73 27 -78 24 -4 -2 -31 -41 -61 -86 -206 -313
-599 -494 -1026 -473 -377 19 -725 166 -980 416 -148 146 -226 280 -266 457
-20 91 -15 263 11 358 39 144 123 272 232 356 30 22 34 33 59 154 50 247 144
488 260 662 79 119 108 130 331 132 98 1 175 -5 255 -18z m-1562 -346 c36 -19
50 -43 50 -88 0 -59 -77 -107 -170 -107 -37 0 -165 29 -240 55 -42 14 -43 15
-9 10 25 -4 40 -1 49 10 7 8 16 12 21 9 5 -3 9 -1 9 4 0 5 9 12 20 15 11 3 18
1 15 -3 -3 -4 4 -6 15 -3 11 3 20 9 20 13 0 8 90 36 103 32 4 -1 7 2 7 7 0 8
56 25 73 22 4 0 7 5 7 13 0 10 -13 16 -37 19 l-38 4 38 1 c21 1 51 -5 67 -13z
m-125 -5 c-11 -5 -29 -8 -40 -8 -16 0 -15 2 5 8 34 11 60 11 35 0z m-2355 -14
c0 -2 -12 -11 -27 -20 l-28 -17 24 20 c23 21 31 25 31 17z m2287 -2 c-3 -3
-12 -4 -19 -1 -8 3 -5 6 6 6 11 1 17 -2 13 -5z m-59 -11 c-10 -2 -26 -2 -35 0
-10 3 -2 5 17 5 19 0 27 -2 18 -5z m-93 -14 c-51 -10 -92 -10 -50 1 17 4 44 8
60 8 25 0 24 -2 -10 -9z m-2012 -6 c-7 -2 -19 -2 -25 0 -7 3 -2 5 12 5 14 0
19 -2 13 -5z m-191 -16 c-8 -10 -6 -13 8 -14 33 -3 163 -45 188 -61 13 -9 41
-15 61 -14 l36 1 -45 -13 c-25 -8 -76 -26 -115 -41 -75 -29 -142 -30 -184 -3
-34 21 -28 79 13 122 31 34 62 52 38 23z m265 7 c-3 -3 -12 -4 -19 -1 -8 3 -5
6 6 6 11 1 17 -2 13 -5z m1811 -1 c-10 -2 -26 -2 -35 0 -10 3 -2 5 17 5 19 0
27 -2 18 -5z m-1741 -9 c-3 -3 -12 -4 -19 -1 -8 3 -5 6 6 6 11 1 17 -2 13 -5z
m1661 -1 c-10 -2 -28 -2 -40 0 -13 2 -5 4 17 4 22 1 32 -1 23 -4z m-1535 -10
c-13 -2 -33 -2 -45 0 -13 2 -3 4 22 4 25 0 35 -2 23 -4z m1420 0 c-13 -2 -35
-2 -50 0 -16 2 -5 4 22 4 28 0 40 -2 28 -4z m-1290 -10 c-13 -2 -33 -2 -45 0
-13 2 -3 4 22 4 25 0 35 -2 23 -4z m1182 1 c-46 -7 -123 -8 -118 -1 2 4 34 6
71 6 37 -1 58 -3 47 -5z m-987 -11 c-26 -2 -71 -2 -100 0 -29 2 -8 3 47 3 55
0 79 -1 53 -3z m830 0 c-15 -2 -42 -2 -60 0 -18 2 -6 4 27 4 33 0 48 -2 33 -4z
m-530 -10 c-10 -2 -28 -2 -40 0 -13 2 -5 4 17 4 22 1 32 -1 23 -4z m200 0
c-32 -2 -86 -2 -120 0 -35 2 -9 3 57 3 66 0 94 -1 63 -3z m389 -49 c-3 -3 -12
-4 -19 -1 -8 3 -5 6 6 6 11 1 17 -2 13 -5z m-1297 -14 c8 -5 11 -10 5 -10 -5
0 -17 5 -25 10 -8 5 -10 10 -5 10 6 0 17 -5 25 -10z m1337 4 c-3 -3 -12 -4
-19 -1 -8 3 -5 6 6 6 11 1 17 -2 13 -5z m277 -15 c-23 -25 -86 -59 -111 -59
-10 0 -50 16 -88 35 -39 19 -59 32 -45 28 14 -3 39 -6 56 -4 17 1 43 -3 58 -9
17 -6 26 -6 26 0 0 6 5 10 11 10 5 0 8 -4 5 -9 -9 -14 55 -2 79 14 28 20 31
18 9 -6z m-590 0 c28 -2 50 -8 53 -16 3 -8 13 -11 24 -8 11 4 19 2 19 -4 0
-16 21 -13 44 6 12 10 8 3 -9 -15 -16 -18 -35 -30 -42 -28 -7 3 -12 0 -10 -5
1 -6 -27 -27 -62 -47 -105 -58 -176 -50 -323 40 -63 37 -85 56 -55 45 6 -2 30
2 52 10 22 8 69 16 105 19 35 3 65 6 66 7 3 2 68 1 138 -4z m-426 -16 c-10 -2
-26 -2 -35 0 -10 3 -2 5 17 5 19 0 27 -2 18 -5z m-342 -19 c44 -8 88 -19 99
-24 43 -19 79 -18 110 2 26 18 26 16 -5 -11 -19 -17 -41 -29 -47 -26 -7 2 -12
-1 -10 -7 4 -21 -83 -58 -139 -58 -51 0 -57 3 -126 62 -68 59 -71 63 -47 69
40 12 83 10 165 -7z m1522 -101 c-10 -2 -26 -2 -35 0 -10 3 -2 5 17 5 19 0 27
-2 18 -5z m62 -13 c18 -12 2 -12 -25 0 -13 6 -15 9 -5 9 8 0 22 -4 30 -9z
m-140 -3 c0 -2 -12 -14 -27 -28 l-28 -24 24 28 c23 25 31 32 31 24z m-410 -14
l25 -7 -25 -7 c-20 -6 -17 -7 15 -7 23 0 64 -11 95 -26 62 -29 132 -33 192
-12 21 8 35 10 32 5 -8 -13 7 -11 77 11 35 10 90 22 122 26 41 5 54 10 45 16
-9 7 -8 8 5 4 11 -3 31 -9 45 -12 15 -3 33 -8 40 -10 24 -7 -37 -49 -152 -104
-99 -47 -118 -61 -195 -140 -88 -91 -128 -116 -164 -104 -12 4 -46 30 -77 59
-50 47 -104 90 -214 170 l-39 28 29 21 c16 11 47 38 69 58 45 42 41 40 75 31z
m-600 -93 c8 -5 11 -10 5 -10 -5 0 -17 5 -25 10 -8 5 -10 10 -5 10 6 0 17 -5
25 -10z m1376 -126 c10 -40 -3 -121 -27 -169 -80 -159 -269 -236 -719 -292
-114 -14 -220 -18 -500 -18 -378 0 -479 7 -699 51 -274 54 -388 139 -399 296
-3 42 -1 68 5 68 6 0 30 -7 54 -15 112 -40 520 -96 819 -114 80 -4 266 -9 413
-10 l268 -2 40 -40 c54 -54 138 -93 180 -84 21 5 70 44 149 120 121 116 183
155 315 199 28 9 57 21 65 26 23 15 29 12 36 -16z m4533 -564 c41 -20 74 -65
85 -114 11 -45 8 -185 -5 -246 -21 -98 -39 -123 -106 -142 -70 -20 -140 -77
-180 -146 -34 -57 -43 -179 -20 -255 15 -48 15 -48 -14 -79 -75 -82 -96 -214
-52 -326 l21 -53 -25 -44 c-75 -135 -13 -309 135 -382 52 -26 66 -28 172 -28
106 0 120 2 173 28 74 37 76 57 3 57 -65 0 -215 42 -274 76 -55 32 -74 62 -75
123 -2 56 17 85 70 107 42 18 140 17 228 -1 102 -22 150 -20 169 7 22 31 7 50
-62 81 -75 34 -155 54 -264 66 -106 12 -125 21 -134 65 -11 64 28 140 89 173
45 25 212 24 339 -1 108 -22 132 -16 126 33 -2 20 -14 31 -52 49 -73 35 -190
63 -298 70 -54 4 -102 12 -108 18 -21 21 -22 87 -3 124 29 55 88 80 194 80
145 0 293 -26 366 -63 42 -22 98 -88 113 -132 18 -54 7 -141 -25 -204 l-26
-53 22 -51 c27 -65 30 -158 5 -207 -10 -19 -37 -54 -59 -78 -40 -40 -42 -46
-48 -124 -14 -161 -105 -274 -266 -329 -58 -20 -88 -24 -198 -24 l-130 0 -88
43 c-49 23 -100 42 -113 42 -54 0 -38 -55 43 -142 23 -26 43 -52 43 -58 0 -17
-81 -118 -137 -171 -110 -106 -246 -184 -361 -209 -55 -11 -72 -11 -164 9
-124 25 -273 43 -304 35 -27 -7 -108 33 -152 74 -39 36 -40 65 -13 200 50 241
207 422 367 422 l35 0 -27 -35 c-17 -23 -27 -49 -28 -73 -1 -35 1 -37 31 -40
45 -4 102 28 184 106 89 83 171 183 237 287 28 44 67 97 86 117 42 43 43 53
14 110 -31 58 -36 195 -14 309 13 65 36 123 102 254 89 180 116 264 134 413
14 123 29 169 63 204 53 52 111 62 176 28z m-4765 -32 c-29 -96 -142 -182
-332 -254 -108 -41 -110 -43 -90 -101 9 -27 27 -84 38 -128 35 -128 97 -278
149 -357 81 -124 170 -188 291 -210 l63 -11 -6 -146 c-7 -185 -31 -322 -79
-455 l-21 -58 -58 6 c-211 24 -410 126 -567 290 -73 77 -99 113 -144 202 -61
120 -98 219 -128 347 -26 111 -50 276 -50 355 l0 62 31 0 c40 0 69 16 69 39 0
23 -37 39 -214 91 -314 92 -586 218 -586 271 0 4 19 3 43 -2 84 -15 353 -29
575 -29 321 0 574 24 847 79 179 37 178 37 169 9z m1681 -1166 c116 -27 258
-42 386 -42 l101 0 -20 -32 c-29 -48 -117 -106 -195 -129 -56 -18 -87 -20
-180 -17 -125 4 -178 23 -216 77 -44 61 -35 179 12 168 12 -3 63 -14 112 -25z
m426 -2992 c661 -22 1146 -71 1567 -155 250 -51 787 -195 832 -225 16 -10 15
-12 -190 -224 -120 -123 -173 -166 -207 -166 -13 0 -94 20 -181 44 -675 189
-1094 262 -1705 297 -270 15 -930 6 -1157 -15 -607 -59 -1037 -137 -1515 -275
-77 -23 -151 -41 -165 -41 -14 0 -41 9 -60 21 -45 27 -350 334 -350 352 0 27
319 121 680 201 171 38 387 73 550 90 678 72 830 85 1070 92 107 4 196 8 198
9 9 7 367 5 633 -5z"/>
<path d="M3436 8031 c13 -28 16 -54 12 -125 -5 -98 -25 -152 -72 -197 -19 -19
-22 -28 -15 -44 9 -18 9 -19 -4 -2 -14 16 -17 16 -58 -7 -24 -13 -63 -29 -86
-35 -36 -10 -40 -14 -35 -34 6 -22 6 -22 13 3 4 14 7 22 8 18 1 -4 19 -1 41 7
29 10 39 11 37 2 -1 -7 4 -11 11 -9 10 2 17 -25 13 -50 0 -5 12 -8 29 -8 27 0
35 8 31 32 -1 11 38 30 49 23 6 -3 7 1 4 9 -3 9 -2 16 4 16 6 0 8 -13 6 -29
-4 -20 0 -30 12 -35 13 -5 15 -1 12 19 -4 17 -1 25 8 25 7 0 12 -6 10 -12 -1
-7 -1 -9 2 -5 2 4 10 3 18 -4 8 -7 17 -9 21 -5 3 3 1 6 -6 6 -7 0 -9 5 -4 13
4 6 8 19 8 27 0 8 6 14 14 12 8 -2 11 3 8 13 -6 13 -2 16 20 14 3 0 12 14 19
31 16 38 34 31 33 -13 -1 -18 -3 -24 -6 -14 -2 9 -9 17 -14 17 -6 0 -7 -4 -4
-10 3 -5 1 -10 -4 -10 -18 0 -12 -17 7 -22 14 -4 19 -14 18 -41 -1 -20 -5 -39
-8 -42 -4 -4 -4 -13 -2 -20 3 -7 1 -16 -5 -20 -6 -3 -11 2 -11 13 0 11 -7 19
-17 19 -24 0 -33 -17 -26 -44 3 -14 1 -23 -6 -23 -6 0 -11 5 -11 11 0 6 -9 8
-22 3 -13 -3 -20 -3 -15 1 11 13 -23 44 -41 38 -9 -4 -13 -2 -8 5 3 6 2 13 -4
17 -5 3 -10 -1 -10 -9 0 -9 -4 -16 -10 -16 -5 0 -7 7 -4 15 4 9 0 15 -9 15 -8
0 -14 -8 -13 -17 1 -24 36 -52 58 -48 12 3 15 -1 11 -12 -4 -11 -8 -11 -13 -3
-5 8 -10 9 -14 2 -14 -24 24 -25 118 -6 19 4 25 9 16 14 -8 5 -10 15 -5 26 6
18 8 17 16 -3 12 -31 18 -29 35 14 17 39 20 149 7 196 -8 27 -9 28 -28 9 -24
-22 -58 -25 -51 -5 3 7 1 13 -4 13 -6 0 -10 -9 -10 -20 0 -11 -4 -20 -10 -20
-6 0 -6 9 -1 23 6 15 4 31 -4 47 -7 14 -11 29 -8 35 2 5 -2 2 -10 -8 -15 -18
-15 -18 -22 2 -3 12 -4 25 -1 30 4 5 7 34 7 65 1 33 6 53 11 50 6 -4 5 4 -2
16 -18 33 -6 33 14 0 9 -17 13 -30 8 -30 -5 0 -12 -11 -14 -25 l-5 -24 22 21
23 22 -29 41 c-15 22 -38 51 -49 65 l-21 25 17 -34z m29 -251 c7 0 15 -7 19
-15 3 -8 1 -15 -4 -15 -6 0 -10 -5 -10 -11 0 -5 5 -7 12 -3 7 5 9 2 5 -9 -3
-8 1 -21 9 -27 8 -7 14 -8 14 -3 0 5 7 10 15 10 15 0 22 -26 8 -28 -5 0 -16
-2 -25 -4 -11 -2 -18 3 -18 12 0 11 -6 8 -20 -8 -10 -13 -19 -20 -20 -15 0 5
7 18 17 28 16 18 8 25 -12 10 -16 -11 -15 -61 1 -55 7 2 17 -5 24 -16 11 -21
-3 -31 -15 -11 -4 6 -10 8 -15 5 -4 -3 -10 1 -13 9 -3 8 -16 12 -32 11 -21 -3
-25 0 -20 16 4 12 2 19 -7 19 -7 0 2 10 19 23 29 19 49 48 23 32 -6 -3 -7 1
-4 10 5 12 9 13 20 4 11 -9 14 -7 14 10 0 12 -4 19 -10 16 -6 -4 -7 1 -3 11 4
11 8 13 11 6 2 -7 10 -12 17 -12z m45 -120 c0 -13 -12 -19 -26 -13 -21 8 -17
22 6 20 11 -1 20 -4 20 -7z m-180 -20 c-12 -8 -10 -10 10 -11 14 -1 33 -1 43
-1 26 3 13 -13 -23 -28 -23 -9 -28 -15 -18 -21 10 -7 9 -9 -3 -9 -9 0 -19 9
-22 20 -4 17 -2 20 13 15 10 -3 21 -2 24 3 3 5 -1 9 -9 10 -8 1 -22 3 -30 4
-20 2 -19 15 2 27 22 12 33 3 13 -9z"/>
<path d="M3427 7710 c-8 -11 -17 -17 -20 -13 -4 3 -7 3 -7 -1 0 -4 7 -14 15
-22 13 -14 15 -13 15 2 0 10 7 26 17 36 9 10 11 18 5 18 -6 0 -17 -9 -25 -20z"/>
<path d="M3510 7906 c-11 -14 -10 -19 5 -36 10 -11 21 -17 25 -15 4 3 8 -1 7
-8 -1 -32 4 -48 13 -42 6 3 10 -3 10 -14 0 -11 -5 -23 -12 -27 -8 -5 -9 -2 -5
9 4 12 1 17 -9 17 -11 0 -14 -5 -9 -17 4 -10 8 -24 8 -31 0 -7 11 -1 23 14 25
29 24 36 -23 127 -17 34 -21 37 -33 23z m20 -22 c0 -8 -4 -12 -10 -9 -5 3 -10
10 -10 16 0 5 5 9 10 9 6 0 10 -7 10 -16z"/>
<path d="M3475 7870 c-3 -5 -1 -10 4 -10 6 0 11 5 11 10 0 6 -2 10 -4 10 -3 0
-8 -4 -11 -10z"/>
<path d="M3506 7848 c-7 -21 -3 -48 6 -48 4 0 8 6 8 13 0 8 4 7 10 -3 7 -10
10 -11 10 -2 0 7 -7 15 -16 19 -11 4 -12 8 -4 13 9 5 9 9 1 14 -6 4 -13 1 -15
-6z"/>
<path d="M3467 7836 c-4 -10 -1 -13 8 -9 8 3 12 9 9 14 -7 12 -11 11 -17 -5z"/>
<path d="M3500 7786 c0 -2 7 -9 15 -16 13 -11 14 -10 9 4 -5 14 -24 23 -24 12z"/>
<path d="M1323 7732 c-8 -31 -8 -40 1 -35 8 5 8 3 0 -8 -6 -8 -15 -25 -19 -39
-7 -23 -7 -24 10 -10 11 8 16 10 12 3 -5 -8 0 -11 12 -10 18 1 18 3 6 17 -10
11 -11 20 -3 34 8 15 8 21 0 24 -7 2 -12 11 -12 20 0 14 2 13 14 -3 7 -11 16
-30 20 -42 6 -19 4 -22 -11 -17 -14 5 -15 4 -3 -4 8 -6 19 -8 25 -5 5 4 7 2 2
-2 -4 -5 0 -16 9 -26 14 -16 14 -18 -4 -23 -11 -4 -25 -5 -32 -4 -7 2 -14 -1
-16 -7 -2 -5 6 -10 19 -10 12 -1 32 -4 45 -9 18 -6 24 -3 31 16 6 13 10 17 10
10 1 -7 6 -10 11 -7 6 3 13 0 16 -8 3 -9 13 -13 24 -10 11 3 33 0 49 -5 17 -6
33 -7 35 -3 3 4 -22 13 -55 20 -73 15 -119 53 -158 129 l-28 55 -10 -41z m92
-102 c3 -5 2 -10 -4 -10 -5 0 -13 5 -16 10 -3 6 -2 10 4 10 5 0 13 -4 16 -10z
m5 -36 c0 -8 -4 -12 -10 -9 -5 3 -10 10 -10 16 0 5 5 9 10 9 6 0 10 -7 10 -16z"/>
<path d="M3536 7644 c-4 -10 -2 -21 5 -24 6 -4 10 -10 10 -14 -1 -3 -1 -16 0
-28 0 -22 1 -22 9 -3 5 11 9 14 9 7 1 -7 5 -10 11 -7 6 4 4 15 -5 29 -8 12
-13 25 -10 28 3 3 -1 10 -9 17 -11 9 -15 8 -20 -5z"/>
<path d="M1298 7597 c-3 -14 -2 -29 1 -34 11 -15 31 -13 31 2 0 8 -5 15 -11
15 -5 0 -8 4 -5 8 2 4 1 14 -3 21 -6 9 -10 5 -13 -12z"/>
<path d="M3132 7601 c-10 -6 -9 -10 7 -14 14 -3 21 0 21 9 0 16 -9 18 -28 5z"/>
<path d="M3260 7603 c0 -6 5 -15 11 -18 5 -4 9 -14 7 -23 -4 -19 -48 -24 -48
-5 0 15 -26 18 -35 3 -3 -5 0 -8 7 -5 9 4 14 -5 15 -26 1 -17 10 -37 18 -43
14 -10 9 -12 -24 -13 -31 -2 -39 1 -34 13 3 7 9 14 15 14 5 0 6 -6 2 -12 -5
-10 -3 -10 7 0 12 11 12 14 -1 22 -13 8 -13 10 0 10 11 0 11 3 2 12 -13 13
-22 7 -26 -17 -1 -9 -8 -20 -15 -25 -22 -13 24 -51 58 -48 16 1 28 5 25 9 -2
5 11 5 31 2 34 -5 48 8 25 22 -5 3 -10 12 -9 18 0 9 2 8 6 -1 2 -6 9 -10 14
-6 5 3 9 -4 9 -15 0 -12 4 -21 9 -21 5 0 9 11 9 25 0 15 -6 25 -15 25 -8 0
-11 5 -8 10 4 6 10 8 15 5 4 -3 10 1 13 7 3 7 5 4 6 -7 2 -52 4 -55 35 -54 17
1 24 3 15 6 -9 2 -23 20 -32 39 -10 19 -23 34 -30 33 -31 -4 -47 2 -47 19 0
20 -29 64 -30 45z m20 -107 c12 -36 12 -36 0 -36 -5 0 -12 11 -16 25 -3 14
-14 29 -23 35 -13 7 -12 9 6 7 15 -1 26 -11 33 -31z m30 30 c0 -3 -4 -8 -10
-11 -5 -3 -10 -1 -10 4 0 6 5 11 10 11 6 0 10 -2 10 -4z m-80 -66 c0 -5 -4
-10 -10 -10 -5 0 -10 5 -10 10 0 6 5 10 10 10 6 0 10 -4 10 -10z"/>
<path d="M3523 7592 c1 -14 5 -18 11 -12 7 7 6 14 -1 21 -9 9 -12 7 -10 -9z"/>
<path d="M3070 7590 c0 -5 -8 -6 -17 -3 -17 7 -17 6 0 -11 9 -10 22 -26 27
-37 9 -16 14 -17 30 -6 11 6 20 15 20 20 0 4 -4 6 -9 3 -17 -11 -51 8 -42 23
5 7 14 10 20 7 6 -4 9 -12 6 -17 -4 -5 -1 -9 5 -9 7 0 9 7 6 16 -3 9 -6 18 -6
20 0 2 -9 4 -20 4 -11 0 -20 -4 -20 -10z"/>
<path d="M3210 7590 c0 -5 5 -10 10 -10 6 0 10 5 10 10 0 6 -4 10 -10 10 -5 0
-10 -4 -10 -10z"/>
<path d="M3244 7584 c2 -10 8 -20 14 -22 17 -5 15 13 -2 27 -12 10 -14 9 -12
-5z"/>
<path d="M3390 7590 c-13 -8 -12 -10 3 -10 9 0 17 5 17 10 0 12 -1 12 -20 0z"/>
<path d="M2990 7580 c-9 -6 -10 -10 -3 -10 6 0 15 5 18 10 8 12 4 12 -15 0z"/>
<path d="M1343 7568 c2 -7 10 -12 16 -10 7 1 10 -2 6 -8 -3 -6 0 -7 10 -4 14
6 14 8 -2 20 -23 17 -36 18 -30 2z"/>
<path d="M1438 7574 c0 -5 -2 -13 -3 -19 -2 -5 -3 -16 -4 -22 0 -7 -6 -13 -12
-13 -6 0 -9 9 -6 20 3 11 2 20 -3 20 -12 0 -20 -29 -10 -35 6 -4 10 -12 10
-18 0 -7 -8 -3 -16 8 -8 11 -20 19 -26 17 -6 -2 -15 3 -19 10 -4 7 -11 9 -16
5 -4 -5 -3 -11 3 -15 6 -4 13 -15 17 -24 5 -15 26 -18 68 -9 3 0 15 14 27 30
18 25 19 31 7 41 -8 7 -16 9 -17 4z m-63 -64 c3 -5 1 -10 -4 -10 -6 0 -11 5
-11 10 0 6 2 10 4 10 3 0 8 -4 11 -10z"/>
<path d="M2930 7571 c0 -5 9 -7 20 -4 11 3 20 7 20 9 0 2 -9 4 -20 4 -11 0
-20 -4 -20 -9z"/>
<path d="M3130 7570 c0 -5 5 -10 10 -10 6 0 10 5 10 10 0 6 -4 10 -10 10 -5 0
-10 -4 -10 -10z"/>
<path d="M1492 7559 c2 -7 10 -15 17 -17 8 -3 12 1 9 9 -2 7 -10 15 -17 17 -8
3 -12 -1 -9 -9z"/>
<path d="M1633 7550 c3 -13 0 -23 -8 -26 -22 -9 -26 -32 -4 -27 10 3 17 9 14
13 -9 14 26 35 68 39 4 1 7 5 7 9 0 4 -19 9 -41 11 -38 2 -41 0 -36 -19z m37
6 c0 -2 -7 -6 -15 -10 -8 -3 -15 -1 -15 4 0 6 7 10 15 10 8 0 15 -2 15 -4z"/>
<path d="M1720 7558 c0 -5 17 -8 37 -8 20 0 33 -3 29 -7 -4 -4 -19 -7 -34 -8
-21 0 -27 -5 -26 -22 1 -18 -2 -20 -22 -13 -16 7 -24 5 -28 -6 -3 -8 -11 -12
-17 -8 -12 7 -31 -15 -23 -28 3 -4 17 -8 31 -8 18 0 24 4 20 15 -8 19 8 28 35
19 21 -6 20 -8 -13 -35 -19 -16 -29 -29 -23 -29 6 0 17 7 24 15 7 8 16 12 21
9 5 -3 9 1 9 9 0 16 49 30 65 18 6 -4 21 -4 35 0 25 8 24 9 -3 5 -15 -2 -30 1
-33 5 -3 5 0 9 5 9 6 0 11 4 11 9 0 5 -14 3 -31 -6 -21 -11 -34 -12 -41 -5
-15 15 -1 45 17 38 8 -3 20 0 27 8 10 10 15 10 29 -3 10 -8 16 -18 13 -23 -9
-15 3 -8 17 9 10 11 10 14 2 9 -7 -4 -13 -2 -13 3 0 6 5 11 10 11 6 0 10 4 10
9 0 5 -32 11 -70 13 -39 2 -70 0 -70 -4z m-40 -93 c0 -2 -9 -3 -19 -2 -11 0
-18 5 -15 9 4 6 34 0 34 -7z"/>
<path d="M2787 7564 c-1 -1 -44 -4 -96 -7 -61 -4 -97 -11 -103 -19 -5 -9 -8
-10 -8 -1 0 9 -27 12 -95 11 -52 -1 -95 -5 -95 -10 0 -4 4 -8 9 -8 17 0 5 -30
-17 -46 -16 -11 -22 -12 -22 -3 0 7 -2 10 -5 7 -3 -3 -1 -17 4 -31 14 -35 -8
-65 -35 -49 -12 7 -14 12 -5 12 8 0 11 6 7 16 -3 8 -2 12 4 9 6 -3 10 -1 10 4
0 17 -18 13 -28 -5 -6 -11 -11 -13 -16 -5 -4 6 -2 11 4 11 6 0 9 4 5 10 -8 13
-36 0 -28 -14 3 -6 -4 -2 -16 9 -18 15 -24 16 -30 6 -10 -16 -3 -51 11 -51 5
0 6 6 2 13 -6 9 -4 9 8 -1 11 -9 18 -10 23 -2 3 6 11 8 16 4 16 -10 -1 -24
-29 -24 -38 0 -52 12 -47 40 4 22 3 23 -8 9 -11 -15 -15 -15 -32 -2 -19 15
-19 15 3 8 13 -4 22 -2 22 4 0 20 48 82 53 69 4 -10 6 -10 6 0 1 6 13 12 27
12 17 0 23 -4 18 -12 -6 -10 -4 -10 7 -2 8 6 26 11 42 10 15 -1 27 2 27 7 0 4
-39 7 -86 6 -47 -1 -81 -5 -74 -9 16 -10 -5 -50 -26 -50 -9 0 -12 -5 -8 -12 5
-7 2 -9 -9 -5 -9 3 -18 -1 -22 -10 -4 -12 -9 -13 -17 -5 -6 6 -17 8 -24 5 -8
-3 -14 0 -14 6 0 6 -7 8 -16 4 -13 -5 -13 -8 -2 -15 10 -7 10 -11 1 -15 -7 -2
-13 -12 -13 -20 0 -13 3 -13 15 -3 8 7 22 9 31 6 11 -4 15 -2 11 8 -4 10 -1
13 9 9 18 -7 18 -17 0 -32 -11 -9 -15 -9 -19 1 -4 10 -8 10 -21 -2 -15 -15
-14 -16 6 -15 13 0 29 4 35 8 7 4 21 3 32 -3 11 -5 63 -10 117 -10 91 0 96 1
91 20 -3 11 -1 20 4 20 5 0 9 8 9 18 0 14 -2 15 -10 2 -5 -8 -10 -10 -10 -5 0
13 36 45 50 45 15 0 12 -17 -5 -24 -17 -6 -20 -26 -4 -26 5 0 7 5 3 12 -5 8
-2 9 10 5 11 -5 15 -3 10 5 -4 6 -3 8 4 4 6 -3 13 -2 17 4 3 5 1 10 -6 10 -7
0 -5 6 6 14 11 8 16 19 12 30 -5 11 -1 16 12 16 13 0 18 -6 16 -17 -1 -10 2
-24 8 -30 6 -9 6 -13 -1 -13 -5 0 -9 -11 -8 -25 0 -14 6 -23 12 -21 6 2 11 -2
11 -10 0 -8 -9 -14 -19 -14 -10 0 -18 -4 -18 -9 0 -5 24 -7 53 -6 28 2 60 4
70 5 9 1 15 6 11 11 -3 6 -12 8 -20 5 -12 -4 -12 -2 -4 14 7 14 7 20 0 20 -5
0 -10 -4 -10 -8 0 -4 -12 -8 -27 -9 -28 -1 -28 -1 5 13 31 14 47 39 17 28 -9
-4 -18 1 -21 11 -4 11 -9 13 -13 6 -5 -8 -13 -6 -27 4 -17 13 -17 14 -1 15 9
0 17 5 17 11 0 5 -4 7 -10 4 -5 -3 -10 -1 -10 4 0 14 57 14 65 1 3 -5 1 -19
-5 -30 -6 -12 -7 -20 -1 -20 5 0 11 6 14 13 5 13 6 12 27 -47 6 -16 13 -27 16
-24 2 3 -5 26 -16 52 -21 50 -19 66 6 66 11 0 14 -6 9 -22 -4 -14 -3 -18 2
-11 10 14 56 6 47 -8 -3 -5 -11 -7 -17 -3 -7 3 -4 -1 5 -9 10 -8 15 -16 12
-19 -14 -15 34 -12 49 2 17 17 17 18 -2 23 -14 3 -18 1 -14 -9 3 -8 1 -14 -5
-14 -5 0 -12 11 -14 25 -4 21 -2 23 13 15 23 -13 62 -13 54 -1 -3 6 -13 10
-23 10 -56 3 -76 8 -80 21 -4 13 -3 13 10 2 12 -9 18 -10 23 -2 5 8 11 8 21
-1 11 -9 14 -8 14 2 0 11 2 11 10 -1 6 -10 10 -11 10 -2 0 6 11 12 25 12 18 0
25 -5 25 -20 0 -19 1 -19 20 -3 26 22 26 39 0 39 -12 0 -22 -1 -23 -2z m-338
-65 c-20 -12 -30 0 -17 21 11 17 13 18 21 4 6 -11 5 -19 -4 -25z m101 -31 c0
-4 -4 -10 -10 -13 -5 -3 -10 -1 -10 4 0 6 -5 11 -11 11 -5 0 -7 -5 -3 -12 4
-7 3 -8 -5 -4 -6 4 -9 11 -6 16 6 10 45 9 45 -2z m-352 -58 c7 -21 -20 -6 -37
21 l-16 24 24 -16 c14 -9 27 -22 29 -29z m362 0 c-8 -5 -18 -6 -24 -3 -5 4 -1
10 10 13 24 9 34 2 14 -10z"/>
<path d="M2845 7560 c4 -6 12 -7 18 -3 7 4 5 -4 -5 -17 -9 -14 -23 -24 -32
-24 -9 1 -13 -2 -10 -7 3 -5 13 -9 22 -9 15 -1 15 -2 -2 -11 -14 -9 -21 -8
-28 2 -7 10 -8 8 -5 -8 3 -12 0 -24 -6 -26 -6 -2 -7 -9 -3 -16 7 -11 10 -11
17 0 6 10 9 10 9 2 0 -9 10 -11 32 -6 26 5 30 4 25 -10 -5 -13 -1 -17 18 -17
31 0 39 14 19 31 -19 16 -74 19 -74 4 0 -5 -4 -3 -10 5 -12 20 7 31 36 20 15
-6 24 -5 27 4 4 9 -2 11 -19 8 -28 -5 -30 14 -4 35 8 7 11 13 7 13 -4 0 -3 9
3 20 9 18 8 20 -15 20 -15 0 -24 -4 -20 -10z m60 -130 c3 -5 1 -10 -4 -10 -6
0 -11 5 -11 10 0 6 2 10 4 10 3 0 8 -4 11 -10z"/>
<path d="M3005 7560 c-3 -5 -3 -10 1 -10 4 0 -1 -9 -11 -20 -10 -11 -13 -20
-7 -20 6 0 15 7 20 16 5 9 12 12 15 7 4 -6 -2 -19 -12 -30 -24 -26 -12 -55 14
-33 12 10 13 15 3 21 -7 4 -10 11 -7 14 9 9 40 -6 33 -16 -3 -5 1 -6 8 -4 10
4 14 -3 14 -20 0 -28 -13 -34 -22 -10 -9 23 -23 18 -18 -7 4 -20 3 -21 -4 -4
-5 11 -11 15 -15 10 -3 -6 -2 -16 3 -23 13 -22 65 1 64 28 0 14 4 20 12 17 7
-3 15 2 18 10 9 24 7 29 -6 16 -14 -14 -29 -16 -25 -3 1 6 -7 24 -18 40 -20
31 -48 40 -60 21z m49 -25 c9 -14 12 -25 7 -25 -5 0 -12 9 -16 19 -3 11 -14
22 -23 24 -15 4 -15 5 -1 6 9 0 24 -10 33 -24z"/>
<path d="M3153 7554 c-7 -7 -13 -18 -13 -24 0 -6 -4 -8 -10 -5 -6 3 -7 -1 -3
-10 4 -12 8 -13 13 -5 4 7 10 8 12 4 3 -5 3 -3 2 4 -2 6 1 12 7 12 6 0 8 4 5
9 -4 5 -1 11 6 13 7 3 8 7 3 10 -6 3 -16 0 -22 -8z"/>
<path d="M3468 7565 c-4 -4 2 -16 12 -28 11 -11 23 -17 27 -14 3 4 1 7 -6 7
-7 0 -9 5 -6 10 4 6 11 8 16 5 5 -3 6 1 3 9 -3 9 -10 16 -16 16 -5 0 -6 -4 -3
-10 3 -5 2 -10 -4 -10 -5 0 -11 5 -13 11 -2 5 -6 7 -10 4z"/>
<path d="M1925 7551 c-3 -6 -11 -9 -16 -6 -5 3 -6 -1 -3 -9 4 -11 0 -16 -11
-16 -12 0 -15 5 -10 18 5 13 3 14 -5 6 -9 -9 -9 -17 0 -34 9 -17 14 -19 26 -9
8 6 14 17 14 24 0 8 6 15 13 18 6 2 9 7 6 11 -4 4 -10 2 -14 -3z"/>
<path d="M2970 7546 c0 -8 -4 -18 -10 -21 -6 -4 -7 1 -4 12 5 15 4 16 -5 3
-14 -19 -14 -53 -1 -45 16 10 42 65 30 65 -5 0 -10 -6 -10 -14z"/>
<path d="M1467 7543 c-12 -12 -7 -22 8 -17 8 4 15 1 15 -7 0 -7 2 -10 5 -7 7
7 -5 38 -14 38 -4 0 -11 -3 -14 -7z"/>
<path d="M1577 7536 c-4 -9 3 -11 19 -8 25 5 25 14 -1 18 -7 1 -16 -4 -18 -10z"/>
<path d="M1945 7530 c-3 -11 -15 -25 -26 -30 -12 -7 -18 -20 -17 -35 2 -26 12
-32 23 -15 3 6 1 10 -4 10 -6 0 -11 5 -11 10 0 6 7 10 15 10 8 0 14 3 14 8 -3
20 3 23 19 11 15 -13 16 -12 3 4 -20 26 1 47 29 29 12 -7 20 -8 20 -2 0 14 27
12 33 -2 4 -10 6 -10 6 0 1 7 6 10 13 6 7 -4 8 -3 4 4 -4 7 -31 12 -61 12 -45
0 -55 -3 -60 -20z"/>
<path d="M2080 7526 c0 -16 -7 -27 -20 -31 -11 -3 -20 -11 -20 -16 0 -5 -5 -9
-11 -9 -6 0 -8 9 -4 20 5 15 2 20 -14 20 -23 0 -36 -16 -21 -25 5 -3 10 -1 10
4 0 6 4 11 9 11 16 0 0 -39 -18 -43 -9 -2 -7 -3 5 -2 16 1 19 -3 16 -25 -3
-19 1 -29 13 -34 15 -5 16 -4 5 9 -7 9 -10 18 -7 21 3 3 12 -3 19 -15 7 -12
16 -21 20 -21 10 0 -2 31 -21 55 -15 18 -15 19 2 6 23 -18 34 -7 16 16 -8 9
-9 14 -3 10 7 -4 14 0 18 8 3 8 12 12 21 9 8 -3 15 -1 15 6 0 6 -4 8 -10 5 -5
-3 -10 3 -10 14 0 12 7 21 16 21 9 0 12 -5 8 -12 -4 -7 -3 -8 4 -4 20 12 13
26 -13 26 -20 0 -25 -5 -25 -24z"/>
<path d="M2145 7540 c-5 -9 -4 -11 3 -6 7 4 12 2 12 -3 0 -6 -4 -11 -9 -11 -5
0 -16 -11 -24 -24 -15 -22 -15 -24 3 -19 11 3 16 11 13 19 -3 9 1 14 12 14 9
0 14 -4 11 -9 -4 -5 5 -4 19 2 20 10 21 13 8 16 -10 2 -23 10 -29 19 -9 12
-13 12 -19 2z"/>
<path d="M2185 7540 c-3 -5 -1 -10 4 -10 6 0 11 5 11 10 0 6 -2 10 -4 10 -3 0
-8 -4 -11 -10z"/>
<path d="M2909 7538 c-1 -7 -1 -19 0 -25 1 -7 -5 -10 -13 -7 -8 3 -16 1 -19
-3 -3 -5 6 -9 20 -8 26 0 46 25 21 25 -8 1 -6 6 6 15 17 13 18 15 3 15 -9 0
-18 -6 -18 -12z"/>
<path d="M1308 7528 c7 -7 12 -22 12 -35 0 -12 9 -27 21 -33 19 -11 20 -10 8
12 -7 13 -12 27 -11 31 3 9 -23 37 -34 37 -5 0 -3 -5 4 -12z"/>
<path d="M1519 7532 c0 -4 -2 -17 -5 -30 -2 -14 0 -21 6 -17 5 3 10 13 10 21
0 8 7 14 15 14 8 0 15 4 15 8 0 10 -40 13 -41 4z"/>
<path d="M2750 7532 c0 -5 6 -14 13 -21 10 -11 10 -14 0 -18 -7 -3 -13 -10
-13 -16 0 -7 -13 -21 -29 -32 -16 -10 -27 -23 -25 -27 3 -4 0 -8 -5 -8 -6 0
-11 5 -11 10 0 6 -6 10 -14 10 -8 0 -17 7 -20 16 -9 23 -8 26 7 18 6 -4 8 -3
4 1 -4 5 -14 10 -21 11 -12 2 -12 -3 0 -31 11 -26 11 -35 1 -38 -6 -3 21 -5
61 -5 76 -1 86 6 50 31 l-23 16 28 -5 c29 -5 35 4 15 24 -9 9 -9 12 4 12 11 0
14 7 11 24 -5 22 -33 46 -33 28z"/>
<path d="M1656 7521 c-4 -7 -5 -15 -2 -18 9 -9 19 4 14 18 -4 11 -6 11 -12 0z"/>
<path d="M1695 7520 c3 -5 11 -10 16 -10 6 0 7 5 4 10 -3 6 -11 10 -16 10 -6
0 -7 -4 -4 -10z"/>
<path d="M2540 7519 c0 -5 5 -7 10 -4 6 3 10 8 10 11 0 2 -4 4 -10 4 -5 0 -10
-5 -10 -11z"/>
<path d="M1583 7500 c-5 -18 -25 -30 -22 -12 4 22 -3 24 -15 6 -15 -22 -76
-32 -76 -13 0 6 4 8 9 4 5 -3 12 -1 15 4 3 5 -1 11 -9 15 -8 3 -15 1 -15 -3 0
-5 -18 -12 -40 -16 -31 -5 -38 -10 -31 -19 6 -7 8 -16 4 -19 -3 -4 5 -7 18 -7
13 -1 50 -3 82 -7 33 -3 57 -1 57 4 0 5 7 10 15 10 18 0 20 -13 3 -20 -7 -3 0
-6 16 -6 28 -1 29 0 11 19 -11 13 -16 30 -13 50 5 34 -1 41 -9 10z m-123 -30
c0 -5 12 -10 28 -11 15 0 36 -4 47 -9 21 -9 -49 -6 -90 4 -11 2 -22 5 -25 5
-7 2 23 21 33 21 4 0 7 -4 7 -10z m104 4 c9 -3 16 -11 16 -16 0 -7 -5 -6 -13
1 -8 6 -17 8 -20 4 -4 -3 -7 -1 -7 5 0 14 2 14 24 6z"/>
<path d="M2298 7495 c17 -14 33 -25 37 -25 5 0 -5 11 -21 25 -16 14 -33 25
-37 25 -5 0 5 -11 21 -25z"/>
<path d="M2321 7516 c7 -7 69 -15 65 -7 -3 4 -19 8 -37 9 -18 1 -31 1 -28 -2z"/>
<path d="M3380 7505 c7 -9 15 -13 17 -11 7 7 -7 26 -19 26 -6 0 -6 -6 2 -15z"/>
<path d="M1750 7499 c0 -5 5 -7 10 -4 6 3 10 8 10 11 0 2 -4 4 -10 4 -5 0 -10
-5 -10 -11z"/>
<path d="M2247 7503 c-14 -13 -6 -23 17 -21 14 1 22 6 20 10 -3 4 -12 4 -21 1
-11 -4 -14 -3 -9 5 8 13 3 16 -7 5z"/>
<path d="M2962 7484 c-8 -15 -14 -16 -23 -7 -15 15 -39 5 -32 -13 4 -12 8 -12
21 -2 13 11 14 10 10 -2 -10 -31 51 -56 68 -28 5 7 2 9 -7 6 -20 -8 -55 17
-38 27 6 4 15 1 20 -6 14 -23 18 -5 5 20 -13 23 -14 23 -24 5z"/>
<path d="M1873 7478 c6 -18 -12 -24 -70 -20 -18 0 -20 -2 -10 -13 8 -8 18 -10
28 -4 10 5 20 4 27 -3 9 -9 12 -9 12 1 0 7 5 9 11 5 8 -4 8 -9 0 -17 -21 -21
-10 -27 49 -27 41 0 60 4 60 13 0 8 4 7 10 -3 8 -13 10 -13 10 1 0 9 -3 18 -6
22 -9 9 -35 -4 -28 -14 3 -5 -5 -9 -18 -8 -13 0 -17 3 -10 6 15 6 16 33 1 33
-6 0 -13 -9 -16 -20 -6 -22 -23 -27 -24 -7 -2 29 -8 50 -20 61 -9 8 -10 7 -6
-6z"/>
<path d="M2471 7474 c0 -11 3 -14 6 -6 3 7 2 16 -1 19 -3 4 -6 -2 -5 -13z"/>
<path d="M1366 7465 c4 -8 10 -15 15 -15 4 0 6 7 3 15 -4 8 -10 15 -15 15 -4
0 -6 -7 -3 -15z"/>
<path d="M1945 7470 c-3 -6 1 -7 9 -4 18 7 21 14 7 14 -6 0 -13 -4 -16 -10z"/>
<path d="M3124 7464 c5 -12 2 -15 -10 -10 -10 4 -14 1 -12 -6 6 -16 68 -23 68
-8 0 7 -8 9 -20 5 -15 -5 -18 -2 -15 14 2 12 -1 21 -7 21 -5 0 -7 -7 -4 -16z"/>
<path d="M1605 7450 c3 -5 11 -10 16 -10 6 0 7 5 4 10 -3 6 -11 10 -16 10 -6
0 -7 -4 -4 -10z"/>
<path d="M2423 7440 c-48 -22 -44 -49 7 -48 22 0 40 3 40 7 0 3 3 16 6 27 7
28 -13 34 -53 14z m27 -20 c0 -5 -4 -10 -10 -10 -5 0 -10 5 -10 10 0 6 5 10
10 10 6 0 10 -4 10 -10z"/>
<path d="M1640 7430 c-12 -8 -10 -10 8 -10 13 0 20 4 17 10 -7 12 -6 12 -25 0z"/>
<path d="M1770 7429 c11 -8 7 -9 -18 -5 -20 4 -31 2 -27 -4 3 -5 23 -9 45 -8
32 1 36 3 25 15 -8 7 -20 13 -27 13 -10 0 -9 -3 2 -11z"/>
<path d="M1824 7418 c3 -15 26 -23 26 -8 0 6 -4 9 -9 6 -5 -4 -12 -1 -14 4 -3
6 -4 5 -3 -2z"/>
<path d="M2335 7420 c-3 -5 -1 -10 4 -10 6 0 11 5 11 10 0 6 -2 10 -4 10 -3 0
-8 -4 -11 -10z"/>
<path d="M2795 7420 c-29 -10 -4 -17 35 -9 19 3 33 7 30 9 -14 5 -49 6 -65 0z"/>
<path d="M4939 7576 c-82 -29 -140 -80 -179 -157 -25 -48 -25 -71 -1 -93 17
-15 23 -14 114 34 118 62 161 65 252 20 59 -30 60 -30 79 -10 47 47 3 151 -83
197 -50 26 -124 30 -182 9z"/>
<path d="M5874 7291 c-48 -22 -74 -55 -74 -91 0 -41 13 -50 86 -67 76 -17 170
-62 204 -98 12 -13 36 -52 54 -87 28 -56 35 -63 64 -66 29 -3 34 0 48 35 21
49 14 152 -14 215 -25 57 -92 126 -147 152 -59 28 -169 32 -221 7z"/>
<path d="M4906 7130 c-48 -15 -93 -52 -130 -109 -43 -65 -66 -134 -73 -221 -7
-84 10 -145 52 -187 27 -27 41 -33 74 -33 53 0 88 18 135 71 122 134 142 413
34 466 -37 18 -61 22 -92 13z"/>
<path d="M5804 6881 c-98 -45 -174 -199 -174 -357 0 -87 28 -147 80 -175 64
-35 121 -18 188 55 82 89 125 234 104 347 -13 72 -31 103 -75 129 -40 25 -70
25 -123 1z"/>
<path d="M5045 6611 c-112 -53 -184 -192 -156 -299 13 -48 60 -106 104 -129
56 -28 165 -16 209 24 30 27 22 42 -17 36 -26 -4 -45 1 -78 20 -51 30 -77 76
-77 134 0 104 97 149 204 96 49 -25 53 20 6 83 -42 56 -120 70 -195 35z"/>
<path d="M4652 6188 c-31 -31 -1 -122 54 -165 33 -25 34 -27 34 -102 1 -232
108 -422 291 -514 164 -82 354 -64 522 47 138 92 323 336 368 487 9 30 16 38
28 34 47 -18 69 -17 81 5 40 75 -67 192 -190 207 -58 7 -74 -4 -64 -44 6 -20
-2 -27 -67 -58 -131 -62 -180 -70 -399 -69 -165 0 -207 4 -270 21 -117 32
-232 80 -299 123 -68 44 -72 45 -89 28z m1028 -313 c-39 -57 -81 -88 -150
-111 -47 -16 -85 -19 -250 -19 -223 1 -260 9 -297 64 -13 19 -23 47 -23 64 0
26 3 29 23 23 193 -53 489 -50 667 7 25 8 49 15 53 16 4 1 -6 -19 -23 -44z
m-576 -351 c3 -8 2 -12 -4 -9 -6 3 -10 10 -10 16 0 14 7 11 14 -7z"/>
<path d="M6817 6186 c-65 -24 -102 -61 -144 -143 -45 -88 -56 -122 -44 -142 9
-14 97 -35 111 -26 5 3 22 34 39 70 39 84 72 115 123 115 21 0 47 -6 59 -12
30 -19 51 11 38 55 -22 76 -102 113 -182 83z"/>
<path d="M3548 7123 c7 -3 16 -2 19 1 4 3 -2 6 -13 5 -11 0 -14 -3 -6 -6z"/>
<path d="M3573 6714 c-34 -15 -46 -31 -15 -20 16 6 16 5 0 -7 -16 -13 -16 -15
9 -26 24 -11 25 -11 12 5 -13 16 -12 17 5 11 16 -6 17 -5 6 8 -7 9 -10 18 -6
22 3 3 6 1 6 -6 0 -7 5 -9 10 -6 15 9 10 -78 -4 -87 -16 -11 -26 -10 -26 3 0
5 4 8 9 4 5 -3 12 -1 16 4 3 6 -12 19 -34 31 -50 25 -47 25 -47 -5 0 -14 4
-25 9 -25 5 0 7 7 3 15 -3 8 -1 15 4 15 6 0 10 -4 10 -10 0 -5 7 -7 15 -4 8 4
15 2 15 -4 0 -6 -6 -12 -12 -14 -7 -3 -1 -12 16 -23 34 -23 41 -15 50 62 9 77
5 82 -51 57z"/>
<path d="M3498 6687 c-16 -6 -28 -14 -28 -18 0 -4 14 -2 30 4 17 6 30 15 30
19 0 4 -1 8 -2 7 -2 -1 -15 -6 -30 -12z"/>
<path d="M3450 6655 c0 -16 -2 -17 -10 -5 -5 8 -12 11 -16 7 -4 -4 1 -14 12
-22 18 -14 18 -14 -3 -15 -14 0 -23 -6 -23 -15 0 -21 22 -19 43 5 11 13 13 20
4 20 -9 0 -9 2 0 8 8 5 9 13 3 22 -8 12 -10 11 -10 -5z"/>
<path d="M3478 6648 c-7 -18 2 -39 13 -32 11 6 11 2 3 -20 -5 -12 -10 -14 -19
-6 -9 8 -14 5 -19 -12 -5 -18 -8 -20 -15 -9 -5 7 -11 9 -14 5 -9 -16 27 -49
56 -50 17 -1 26 3 24 10 -3 6 2 19 11 29 8 9 10 17 4 17 -6 0 -12 -6 -15 -12
-2 -7 -8 -9 -13 -5 -5 5 -1 15 10 23 26 19 39 4 26 -31 -9 -23 -8 -26 5 -21 9
3 13 2 10 -4 -3 -6 -14 -10 -23 -11 -11 0 -13 -2 -4 -6 8 -3 10 -9 3 -16 -8
-11 -11 -18 -11 -32 0 -3 -9 3 -19 12 -11 9 -18 20 -15 25 3 4 1 8 -4 8 -7 0
-19 -19 -40 -63 -3 -5 6 -4 19 3 23 10 23 10 5 -4 -10 -9 -22 -13 -27 -11 -4
3 -10 -1 -13 -7 -3 -7 -3 -2 0 12 4 14 10 27 14 30 4 3 10 16 14 30 5 17 4 21
-2 11 -7 -9 -12 -10 -16 -2 -4 6 -12 9 -17 5 -6 -3 -3 -12 8 -20 13 -11 14
-14 3 -12 -8 2 -16 -4 -16 -12 -1 -8 -2 -21 -3 -28 -1 -9 -7 -8 -26 4 -14 9
-26 12 -26 8 -6 -37 -5 -54 1 -54 14 0 19 29 7 34 -9 3 -9 5 0 5 19 1 25 -17
12 -38 -7 -10 -19 -17 -28 -14 -14 4 -14 3 -1 -7 13 -10 13 -11 0 -7 -10 3
-14 14 -12 36 2 19 -4 43 -14 58 -15 25 -15 26 1 20 9 -4 19 -7 21 -7 3 0 2
-5 -2 -12 -5 -8 -2 -9 10 -5 10 4 20 7 22 7 3 0 1 8 -4 18 -5 9 -6 28 -2 42 6
20 9 22 14 9 4 -10 6 -25 4 -34 -2 -10 3 -20 10 -22 8 -3 10 1 6 12 -4 10 -1
21 7 26 10 6 10 9 2 9 -7 0 -13 5 -13 11 0 5 4 8 9 4 10 -5 5 60 -5 76 -3 5 0
9 7 9 7 0 10 2 7 5 -3 3 -17 1 -31 -4 -19 -8 -25 -15 -21 -28 5 -14 4 -15 -4
-4 -8 11 -14 11 -33 -4 l-24 -17 25 7 c17 4 21 3 12 -3 -11 -8 -11 -10 1 -15
16 -6 37 10 37 30 0 7 5 13 11 13 6 0 9 -7 5 -15 -3 -8 -1 -15 4 -15 6 0 10
-5 10 -11 0 -5 -4 -8 -8 -5 -5 3 -21 -1 -36 -9 -23 -12 -28 -12 -33 0 -9 26
-36 16 -75 -27 -24 -27 -34 -46 -28 -52 6 -6 16 -3 29 8 12 11 21 14 25 7 9
-14 -11 -51 -27 -50 -9 0 -9 2 1 6 6 2 9 9 6 14 -3 6 -11 5 -20 -2 -9 -7 -14
-8 -14 -1 0 18 -23 8 -74 -31 -27 -20 -52 -37 -56 -37 -9 0 -24 -49 -21 -67 3
-18 -16 -16 -23 2 -3 8 -1 15 4 15 6 0 10 5 10 12 0 6 -9 3 -20 -7 -14 -12
-17 -21 -9 -25 6 -4 0 -10 -16 -14 -57 -14 -15 -15 71 -1 106 17 197 39 190
46 -3 3 9 6 27 6 50 2 87 20 87 42 0 15 5 19 16 14 13 -5 13 -8 2 -15 -10 -8
-10 -9 2 -5 8 2 14 10 12 17 -2 8 5 9 19 5 15 -5 19 -4 14 5 -4 7 -1 10 11 8
15 -2 18 2 16 22 -2 23 -1 23 11 8 13 -17 15 -16 34 5 28 31 40 52 23 42 -8
-5 -11 -3 -8 6 3 8 12 14 21 14 8 0 19 4 23 8 4 4 0 7 -8 7 -22 0 -42 26 -28
35 15 9 -9 38 -27 31 -7 -3 -14 -1 -14 4 -1 6 -3 15 -4 20 -1 6 -3 15 -4 20
-2 14 -18 12 -23 -2z m-7 -95 c-8 -15 -10 -15 -11 -2 0 17 10 32 18 25 2 -3
-1 -13 -7 -23z m-151 -19 c0 -2 -7 -4 -15 -4 -8 0 -15 4 -15 10 0 5 7 7 15 4
8 -4 15 -8 15 -10z m16 -32 c1 -7 0 -8 -2 -3 -3 6 -12 7 -21 4 -11 -4 -14 -3
-9 6 9 14 29 10 32 -7z m-142 -57 c-4 -8 -11 -15 -16 -15 -6 0 -5 6 2 15 7 8
14 15 16 15 2 0 1 -7 -2 -15z m120 0 c3 -8 1 -15 -4 -15 -6 0 -10 -8 -10 -17
0 -15 2 -16 10 -3 6 9 10 10 10 3 0 -6 -5 -15 -10 -18 -6 -4 -8 -10 -6 -14 3
-4 -6 -8 -19 -9 -27 -2 -42 13 -24 24 8 5 9 3 4 -6 -5 -8 -3 -11 6 -8 15 5 26
48 12 48 -5 0 -19 -9 -31 -20 -22 -21 -48 -28 -37 -10 3 6 0 10 -7 11 -15 1
48 20 75 22 10 1 15 7 13 14 -3 7 -1 13 3 13 5 0 11 -7 15 -15z m-108 -60 c14
-13 13 -15 -5 -15 -21 0 -35 13 -24 24 9 9 13 8 29 -9z m-82 -11 c9 -3 16 -10
16 -16 0 -5 -5 -6 -12 -2 -8 5 -9 0 -6 -14 4 -12 2 -22 -3 -22 -5 0 -9 7 -9
16 0 8 -4 12 -10 9 -11 -7 -14 18 -3 28 8 8 8 8 27 1z m126 -9 c7 -9 8 -15 2
-15 -5 0 -12 7 -16 15 -3 8 -4 15 -2 15 2 0 9 -7 16 -15z m-52 -26 c-16 -11
-48 -12 -48 -1 0 4 14 7 31 8 20 1 26 -2 17 -7z"/>
<path d="M1310 6600 c-9 -6 -10 -10 -3 -10 6 0 15 5 18 10 8 12 4 12 -15 0z"/>
<path d="M1363 6585 c0 -8 4 -12 9 -9 5 3 6 10 3 15 -9 13 -12 11 -12 -6z"/>
<path d="M3566 6573 c-11 -12 -6 -19 14 -20 11 -1 20 2 20 7 0 10 -26 20 -34
13z"/>
<path d="M1340 6555 c0 -8 4 -15 10 -15 5 0 7 7 4 15 -4 8 -8 15 -10 15 -2 0
-4 -7 -4 -15z"/>
<path d="M1400 6546 c0 -2 8 -10 18 -17 15 -13 16 -12 3 4 -13 16 -21 21 -21
13z"/>
<path d="M1352 6515 c-12 -14 -18 -25 -12 -25 5 0 13 7 18 16 6 11 16 14 31 9
29 -9 27 -25 -4 -25 -14 0 -25 -5 -25 -11 0 -5 -4 -7 -10 -4 -6 4 -7 -1 -3
-11 6 -16 7 -16 18 0 7 9 24 17 39 18 14 1 26 3 26 5 0 4 -47 53 -52 53 -2 0
-14 -11 -26 -25z"/>
<path d="M3420 6530 c0 -5 5 -10 10 -10 6 0 10 5 10 10 0 6 -4 10 -10 10 -5 0
-10 -4 -10 -10z"/>
<path d="M3490 6506 c0 -9 5 -16 10 -16 6 0 10 4 10 9 0 6 -4 13 -10 16 -5 3
-10 -1 -10 -9z"/>
<path d="M1440 6500 c8 -5 15 -19 15 -32 0 -16 7 -24 23 -26 12 -2 22 2 22 8
0 6 5 8 10 5 6 -3 10 -11 10 -16 0 -6 -4 -8 -9 -4 -6 3 -9 -4 -8 -15 2 -26 14
-26 22 0 3 11 11 20 16 20 13 0 11 -9 -5 -26 -8 -7 -12 -24 -10 -36 2 -13 2
-17 -2 -10 -3 6 -10 10 -15 6 -5 -3 -8 0 -7 8 2 8 -7 13 -24 12 -16 0 -28 4
-28 9 0 4 -4 6 -8 3 -4 -2 -9 5 -9 16 -1 12 -8 27 -16 35 -11 12 -16 10 -33
-8 -10 -13 -13 -19 -6 -15 6 4 12 2 12 -3 0 -14 63 -53 130 -79 58 -23 200
-56 207 -48 9 9 -9 26 -20 20 -7 -3 -4 1 6 9 10 9 15 21 11 31 -3 9 -1 16 5
16 7 0 11 -14 9 -33 -3 -44 8 -58 45 -57 18 0 47 -2 65 -6 27 -5 31 -4 26 10
-3 9 -1 16 5 16 6 0 10 -3 10 -7 -4 -26 4 -33 42 -33 44 0 81 23 53 34 -8 3
-13 10 -9 15 10 17 35 0 36 -23 0 -11 3 -15 6 -9 3 10 10 10 25 2 27 -14 41 1
32 35 -5 22 -12 26 -42 26 -40 0 -39 -9 1 -12 18 -2 27 -9 30 -25 2 -13 1 -23
-3 -23 -9 0 -62 40 -72 55 -4 5 -36 11 -70 11 -35 1 -70 4 -78 7 -54 19 -96 9
-65 -16 6 -6 6 -10 -3 -14 -6 -2 -9 -10 -5 -16 3 -7 2 -9 -2 -5 -5 5 -10 20
-11 34 -4 35 -11 41 -54 47 -19 3 -42 6 -50 8 -12 3 -15 -5 -13 -33 1 -21 -2
-38 -6 -38 -16 0 -39 27 -50 59 -9 28 -8 32 4 27 33 -12 11 4 -50 38 -35 20
-67 41 -70 46 -3 6 -14 10 -23 10 -14 0 -15 -2 -2 -10z m44 -41 c-8 -14 -24
-10 -24 6 0 9 6 12 15 9 8 -4 12 -10 9 -15z m-67 -15 c-3 -3 -12 -4 -19 -1 -8
3 -5 6 6 6 11 1 17 -2 13 -5z m147 -42 c3 -5 -1 -9 -9 -9 -8 0 -12 4 -9 9 3 4
7 8 9 8 2 0 6 -4 9 -8z m102 -40 c-4 -3 -11 0 -16 8 -15 24 -11 33 6 15 9 -9
13 -19 10 -23z m24 -24 c-13 -12 -19 -17 -15 -9 6 11 4 13 -9 8 -10 -4 -15 -3
-11 3 3 6 13 10 22 10 11 0 14 6 10 22 -5 19 -5 20 10 6 14 -15 13 -18 -7 -40z
m142 8 c3 2 11 -2 18 -11 11 -13 10 -15 -6 -9 -18 5 -18 5 0 -10 11 -9 17 -18
14 -21 -3 -3 -12 0 -19 7 -8 7 -20 13 -28 13 -8 0 -16 10 -17 23 -3 19 -1 21
15 13 10 -6 21 -8 23 -5z m68 -13 c0 -11 -3 -14 -8 -7 -4 6 -14 14 -22 17 -10
4 -8 6 8 6 15 1 22 -5 22 -16z m50 7 c12 7 21 7 25 0 7 -11 -39 -25 -55 -15
-5 3 -7 11 -3 18 5 8 8 8 11 -1 2 -8 9 -9 22 -2z m20 -45 c0 -6 -8 -11 -18
-12 -10 -1 -19 4 -19 11 0 6 9 12 19 12 10 0 18 -5 18 -11z"/>
<path d="M1805 6330 c-3 -5 -1 -10 4 -10 6 0 11 5 11 10 0 6 -2 10 -4 10 -3 0
-8 -4 -11 -10z"/>
<path d="M3375 6460 c3 -5 11 -10 16 -10 6 0 7 5 4 10 -3 6 -11 10 -16 10 -6
0 -7 -4 -4 -10z"/>
<path d="M2843 6414 c-25 -26 -55 -47 -72 -50 -17 -4 -30 -9 -29 -13 2 -19 -3
-24 -12 -11 -13 20 -23 6 -23 -32 1 -18 -1 -27 -4 -20 -3 6 -9 12 -15 12 -6 0
-7 -7 -4 -16 5 -14 4 -15 -8 -5 -11 9 -15 9 -19 -1 -2 -7 -8 -9 -13 -5 -5 5
-1 13 8 18 9 5 24 17 33 26 13 13 14 18 3 24 -19 13 -136 11 -144 -2 -5 -8 -9
-8 -14 1 -5 9 -9 9 -14 1 -4 -6 -3 -11 2 -11 5 0 9 -7 9 -15 0 -9 -7 -13 -16
-10 -9 2 -23 0 -31 -5 -11 -7 -11 -10 -2 -10 7 0 10 -4 7 -10 -9 -14 8 -13 23
2 9 9 12 9 12 0 0 -19 -30 -26 -61 -15 -22 9 -26 8 -22 -3 4 -11 25 -13 97
-10 50 3 93 5 96 6 3 2 29 2 58 1 53 -2 62 4 40 29 -11 12 -10 12 2 3 11 -8
19 -7 30 5 13 14 12 15 -3 9 -9 -3 -17 -2 -17 2 0 13 28 22 35 11 7 -11 -5
-40 -16 -40 -5 0 -9 -4 -9 -9 0 -8 100 -3 110 6 2 2 -2 8 -10 13 -11 7 -12 10
-2 10 7 0 10 5 6 12 -4 7 -3 8 4 4 7 -4 12 -16 12 -27 0 -16 5 -18 28 -13 15
4 30 11 33 17 4 5 9 5 13 -1 4 -6 13 -9 21 -6 13 5 13 23 -1 66 -4 14 -2 19 7
16 7 -2 13 -12 15 -22 1 -10 8 -24 15 -30 9 -8 10 -7 7 4 -4 14 22 41 52 53 9
3 6 6 -10 6 -40 1 -114 34 -133 58 -10 13 -21 23 -25 23 -4 -1 -26 -21 -49
-46z m57 20 c0 -8 5 -12 11 -8 8 4 9 0 4 -15 -5 -17 -3 -20 12 -14 17 7 17 6
0 -11 -9 -10 -15 -22 -12 -27 4 -5 1 -9 -6 -9 -7 0 -10 -2 -7 -5 8 -8 39 6 33
15 -3 5 -1 11 5 15 5 3 11 -1 11 -9 1 -9 2 -23 3 -33 0 -9 -5 -18 -12 -21 -7
-2 -10 2 -6 12 9 24 -4 19 -32 -11 -13 -16 -24 -23 -23 -18 4 22 -13 43 -32
38 -10 -3 -16 -9 -13 -14 3 -5 1 -9 -5 -9 -6 0 -8 -6 -5 -14 4 -11 0 -13 -15
-9 -25 6 -27 21 -6 29 8 4 15 10 15 15 0 4 -6 6 -14 3 -8 -3 -22 -1 -31 4 -16
8 -16 10 -1 15 9 4 16 2 16 -3 0 -6 5 -10 11 -10 5 0 7 5 4 10 -3 6 1 10 10
10 9 0 13 -4 10 -10 -8 -13 -2 -13 30 2 14 6 25 15 25 20 0 12 -14 10 -28 -4
-15 -15 -2 29 18 60 17 26 30 29 30 6z m-65 -54 c-3 -5 -12 -10 -18 -10 -7 0
-6 4 3 10 19 12 23 12 15 0z m160 0 c3 -6 -1 -7 -9 -4 -18 7 -21 14 -7 14 6 0
13 -4 16 -10z m25 -20 c0 -5 -5 -10 -11 -10 -5 0 -7 5 -4 10 3 6 8 10 11 10 2
0 4 -4 4 -10z m-442 -32 c-3 -7 -15 -15 -28 -16 -21 -3 -22 -2 -11 12 16 19
44 21 39 4z m75 -2 c4 -11 1 -13 -10 -9 -11 4 -14 2 -9 -5 5 -8 1 -10 -11 -5
-15 5 -16 3 -5 -8 20 -21 14 -28 -23 -27 -36 1 -45 11 -23 24 6 4 14 2 16 -4
2 -7 8 -12 14 -12 5 0 6 9 3 20 -4 12 -2 20 5 20 6 0 8 5 5 10 -3 6 3 10 13
10 11 0 22 -7 25 -14z m-103 -47 c0 -6 -4 -7 -10 -4 -5 3 -10 11 -10 16 0 6 5
7 10 4 6 -3 10 -11 10 -16z"/>
<path d="M2872 6418 c-7 -7 -12 -16 -12 -22 0 -5 7 -1 15 10 11 14 14 15 9 3
-3 -10 0 -20 6 -24 8 -5 6 -12 -5 -25 -16 -17 -15 -19 7 -31 20 -11 21 -10 11
2 -7 8 -8 20 -4 27 9 15 3 60 -9 67 -4 2 -12 -1 -18 -7z"/>
<path d="M1440 6432 c0 -7 3 -12 8 -13 4 0 15 -2 25 -4 9 -2 17 1 17 7 0 6 -6
8 -14 5 -7 -3 -19 0 -25 6 -8 8 -11 8 -11 -1z"/>
<path d="M1601 6364 c0 -11 3 -14 6 -6 3 7 2 16 -1 19 -3 4 -6 -2 -5 -13z"/>
<path d="M2083 6344 c10 -10 77 -12 71 -2 -3 4 -21 8 -41 8 -20 0 -33 -3 -30
-6z"/>
<path d="M2176 6339 c6 -10 64 -17 64 -8 0 4 12 10 28 12 15 3 -1 4 -35 3 -33
0 -59 -4 -57 -7z"/>
<path d="M2303 6335 c0 -8 6 -15 14 -15 7 0 13 7 13 15 0 8 -6 15 -13 15 -8 0
-14 -7 -14 -15z"/>
<path d="M2339 6334 c-1 -8 -2 -19 -3 -26 -1 -15 -26 -23 -26 -9 0 7 -10 9
-25 5 -15 -4 -25 -2 -25 5 0 6 7 8 15 5 8 -4 15 -2 15 4 0 11 -14 10 -43 -3
-17 -7 -17 -8 2 -21 11 -8 27 -11 38 -7 15 6 16 4 6 -8 -6 -8 -27 -15 -45 -16
-25 -2 -28 0 -14 6 12 5 16 10 9 14 -16 10 -40 -1 -40 -18 0 -12 21 -15 114
-15 80 0 112 3 107 11 -3 6 -16 9 -29 7 -13 -3 -22 0 -22 9 0 8 9 11 28 8 31
-6 48 10 30 28 -6 6 -11 7 -11 1 0 -5 -11 -11 -26 -12 -14 -1 -35 -7 -47 -12
-21 -11 -21 -11 -3 4 11 9 26 16 34 16 7 0 11 4 7 9 -3 5 -1 12 5 16 5 3 10 2
10 -3 0 -5 11 -7 25 -4 42 8 28 17 -30 19 -41 1 -55 -2 -56 -13z m12 -17 c-10
-9 -11 -8 -5 6 3 10 9 15 12 12 3 -3 0 -11 -7 -18z m-26 -47 c3 -5 -1 -10 -10
-10 -9 0 -13 5 -10 10 3 6 8 10 10 10 2 0 7 -4 10 -10z m35 0 c0 -5 -5 -10
-11 -10 -5 0 -7 5 -4 10 3 6 8 10 11 10 2 0 4 -4 4 -10z"/>
<path d="M2456 6319 c-4 -20 -2 -37 5 -43 9 -8 10 -7 6 5 -3 9 -1 21 5 27 6 6
7 16 1 27 -8 14 -11 12 -17 -16z"/>
<path d="M2480 6340 c0 -5 5 -10 10 -10 6 0 10 5 10 10 0 6 -4 10 -10 10 -5 0
-10 -4 -10 -10z"/>
<path d="M2110 6319 c0 -5 -4 -7 -10 -4 -12 8 -13 -5 -1 -24 5 -7 14 -10 20
-7 6 4 11 1 11 -7 0 -15 20 -27 46 -27 8 0 14 4 14 9 0 5 -9 7 -20 4 -16 -4
-19 -2 -14 11 4 10 1 16 -7 16 -10 0 -10 3 -2 11 13 13 36 3 28 -12 -7 -10 6
-12 29 -3 17 7 22 34 6 34 -5 0 -10 -8 -10 -17 0 -15 -1 -15 -12 -1 -19 24
-58 33 -58 14 0 -9 -4 -16 -10 -16 -5 0 -7 7 -4 15 4 8 3 15 0 15 -3 0 -6 -5
-6 -11z"/>
<path d="M2034 6268 c-3 -4 13 -8 35 -8 23 0 41 2 41 4 0 8 -71 12 -76 4z"/>
<path d="M1998 6263 c7 -3 16 -2 19 1 4 3 -2 6 -13 5 -11 0 -14 -3 -6 -6z"/>
</g>
</svg>
